<?xml version="1.0" encoding="UTF-8" standalone="no"?>
<!DOCTYPE svg PUBLIC "-//W3C//DTD SVG 1.1//EN" "http://www.w3.org/Graphics/SVG/1.1/DTD/svg11.dtd">
<svg width="100%" height="100%" viewBox="0 0 512 512" version="1.1" xmlns="http://www.w3.org/2000/svg" xmlns:xlink="http://www.w3.org/1999/xlink" xml:space="preserve" xmlns:serif="http://www.serif.com/" style="fill-rule:evenodd;clip-rule:evenodd;stroke-linejoin:round;stroke-miterlimit:2;">
    <g transform="matrix(1.21282,0,0,1,-51.6232,0)">
        <path d="M97.103,353.103C97.103,440.86 168.244,512 256,512C343.756,512 414.897,440.86 414.897,353.103C414.897,264.827 410.815,193.73 440.429,131.937C440.429,131.937 353.103,141.241 326.621,211.861C326.621,211.861 261.515,157.877 298.397,34.291C298.397,34.291 185.38,35.309 194.776,150.068C202.834,248.474 185.38,264.827 185.38,264.827C185.38,185.379 71.035,161.022 71.035,161.022C119.642,230.026 97.103,273.655 97.103,353.103Z" style="fill:rgb(225,98,50);fill-rule:nonzero;"/>
    </g>
    <path d="M370.696,390.734C370.696,456.827 319.663,513.25 253.582,511.975C191.394,510.777 145.125,463.461 150.07,401.654C152.277,374.068 173.242,329.378 207.449,284.137L230.254,297.93C229.517,242.023 256,167.724 256,167.724C273.396,246.007 370.696,266.298 370.696,390.734Z" style="fill:rgb(255,190,100);fill-rule:nonzero;"/>
    <path d="M211.862,335.448C203.034,388.414 185.379,407.697 185.379,441.379C185.379,476.69 216.998,512 256,512C295.284,512 326.729,479.903 326.62,440.619C326.325,335.111 264.828,282.483 264.828,282.483C273.656,335.449 247.173,361.931 247.173,361.931C236.141,345.385 211.862,335.448 211.862,335.448Z" style="fill:white;fill-rule:nonzero;"/>
    <g>
        <g transform="matrix(0,-3.43913,-3.61953,0,143.598,292.623)">
            <path d="M-20,-46.474C-20,-49.524 -22.606,-52 -25.815,-52L-54.185,-52C-57.394,-52 -60,-49.524 -60,-46.474L-60,-17.526C-60,-14.476 -57.394,-12 -54.185,-12L-25.815,-12C-22.606,-12 -20,-14.476 -20,-17.526L-20,-46.474Z" style="fill-opacity:0.2;"/>
        </g>
        <g transform="matrix(3.61953,0,0,3.43913,143.598,292.623)">
            <path d="M32,6C19.4,6 18,17.294 18,30L24,30C23.852,17.294 26.73,12 32,12C37.27,12 40.147,17.294 40,30L46,30C46,17.294 44.6,6 32,6Z" style="fill-opacity:0.2;fill-rule:nonzero;"/>
        </g>
        <g transform="matrix(3.61953,0,0,3.43913,143.598,292.623)">
            <path d="M32,5C19.4,5 18,16.294 18,29L24,29C23.852,16.294 26.73,11 32,11C37.27,11 40.147,16.294 40,29L46,29C46,16.294 44.6,5 32,5Z" style="fill:rgb(228,228,228);fill-rule:nonzero;"/>
        </g>
        <g transform="matrix(3.61953,0,0,3.43913,143.598,292.623)">
            <path d="M32,5C19.4,5 18,16.294 18,29L18.008,29C18.086,16.71 19.733,6 32,6C44.266,6 45.913,16.71 45.992,29L46,29C46,16.294 44.6,5 32,5Z" style="fill:white;fill-opacity:0.2;fill-rule:nonzero;"/>
        </g>
        <g transform="matrix(0,-3.43913,-3.61953,0,143.598,292.623)">
            <path d="M-19,-46.474C-19,-49.524 -21.606,-52 -24.815,-52L-53.185,-52C-56.394,-52 -59,-49.524 -59,-46.474L-59,-17.526C-59,-14.476 -56.394,-12 -53.185,-12L-24.815,-12C-21.606,-12 -19,-14.476 -19,-17.526L-19,-46.474Z" style="fill:rgb(160,160,160);"/>
        </g>
        <g transform="matrix(0,-3.43913,-3.61953,0,143.598,292.623)">
            <path d="M-25,-42.132C-25,-44.267 -26.824,-46 -29.071,-46L-48.929,-46C-51.176,-46 -53,-44.267 -53,-42.132L-53,-21.868C-53,-19.733 -51.176,-18 -48.929,-18L-29.071,-18C-26.824,-18 -25,-19.733 -25,-21.868L-25,-42.132Z" style="fill:rgb(79,79,79);"/>
        </g>
        <g transform="matrix(3.61953,0,0,3.43913,143.598,292.623)">
            <path d="M39.778,32.222L36.596,33.282L33.693,34.252C31.591,33.631 29.31,34.21 27.757,35.757C26.633,36.882 26,38.409 26,40C26,41.591 26.633,43.118 27.757,44.243C28.882,45.367 30.409,46 32,46C33.591,46 35.118,45.367 36.243,44.243C37.794,42.689 38.374,40.404 37.751,38.299L38.718,35.404L39.778,32.222Z" style="fill-opacity:0.2;fill-rule:nonzero;"/>
        </g>
        <g transform="matrix(3.61953,0,0,3.43913,143.598,292.623)">
            <path d="M39.778,31.222L36.596,32.282L33.693,33.252C31.591,32.631 29.31,33.21 27.757,34.757C26.633,35.882 26,37.409 26,39C26,40.591 26.633,42.118 27.757,43.243C28.882,44.367 30.409,45 32,45C33.591,45 35.118,44.367 36.243,43.243C37.794,41.689 38.374,39.404 37.751,37.299L38.718,34.404L39.778,31.222Z" style="fill:rgb(255,89,105);fill-rule:nonzero;"/>
        </g>
    </g>
</svg>
