<?xml version="1.0" encoding="UTF-8" standalone="no"?>
<!DOCTYPE svg PUBLIC "-//W3C//DTD SVG 1.1//EN" "http://www.w3.org/Graphics/SVG/1.1/DTD/svg11.dtd">
<svg width="100%" height="100%" viewBox="0 0 1000 350" version="1.1" xmlns="http://www.w3.org/2000/svg" xmlns:xlink="http://www.w3.org/1999/xlink" xml:space="preserve" xmlns:serif="http://www.serif.com/" style="fill-rule:evenodd;clip-rule:evenodd;stroke-linejoin:round;stroke-miterlimit:2;">
    <g transform="matrix(0.957531,0,0,0.642482,-5.116,-0.229472)">
        <rect x="0.676" y="-0.642" width="1050.66" height="549.421" style="fill:rgb(4,3,14);"/>
    </g>
    <g transform="matrix(1,0,0,1,-20.4543,60.2223)">
        <text x="365.57px" y="19.431px" style="font-family:'Arial-BoldMT', 'Arial', sans-serif;font-weight:700;font-size:75px;fill:rgb(225,98,0);">Fire</text>
        <text x="503.119px" y="19.431px" style="font-family:'Arial-BoldMT', 'Arial', sans-serif;font-weight:700;font-size:75px;fill:rgb(255,190,100);">Auth</text>
    </g>
    <g transform="matrix(0.795442,0,0,0.795442,156.082,59.9003)">
        <g transform="matrix(0.918275,0,0,0.617075,199.628,27.7651)">
            <path d="M97.103,353.103C97.103,440.86 168.244,512 256,512C343.756,512 414.897,440.86 414.897,353.103C414.897,264.827 410.815,193.73 440.429,131.937C440.429,131.937 353.103,141.241 326.621,211.861C326.621,211.861 261.515,157.877 298.397,34.291C298.397,34.291 185.38,35.309 194.776,150.068C202.834,248.474 185.38,264.827 185.38,264.827C185.38,185.379 71.035,161.022 71.035,161.022C119.642,230.026 97.103,273.655 97.103,353.103Z" style="fill:rgb(225,98,50);fill-rule:nonzero;"/>
        </g>
        <g transform="matrix(0.757143,0,0,0.617075,238.714,27.7651)">
            <path d="M370.696,390.734C370.696,456.827 319.663,513.25 253.582,511.975C191.394,510.777 145.125,463.461 150.07,401.654C152.277,374.068 173.242,329.378 207.449,284.137L230.254,297.93C229.517,242.023 256,167.724 256,167.724C273.396,246.007 370.696,266.298 370.696,390.734Z" style="fill:rgb(255,190,100);fill-rule:nonzero;"/>
        </g>
        <g transform="matrix(0.757143,0,0,0.617075,238.714,27.7651)">
            <path d="M211.862,335.448C203.034,388.414 185.379,407.697 185.379,441.379C185.379,476.69 216.998,512 256,512C295.284,512 326.729,479.903 326.62,440.619C326.325,335.111 264.828,282.483 264.828,282.483C273.656,335.449 247.173,361.931 247.173,361.931C236.141,345.385 211.862,335.448 211.862,335.448Z" style="fill:white;fill-rule:nonzero;"/>
        </g>
        <g transform="matrix(0.7116,0,0,0.7116,249.684,-17.6674)">
            <g transform="matrix(0,-3.43913,-3.61953,0,143.598,292.623)">
                <path d="M-20,-42.238C-20,-47.626 -24.604,-52 -30.274,-52L-49.726,-52C-55.396,-52 -60,-47.626 -60,-42.238L-60,-21.762C-60,-16.374 -55.396,-12 -49.726,-12L-30.274,-12C-24.604,-12 -20,-16.374 -20,-21.762L-20,-42.238Z" style="fill-opacity:0.2;"/>
            </g>
            <g transform="matrix(3.61953,0,0,3.43913,143.598,292.623)">
                <path d="M32,6C19.4,6 18,17.294 18,30L24,30C23.852,17.294 26.73,12 32,12C37.27,12 40.147,17.294 40,30L46,30C46,17.294 44.6,6 32,6Z" style="fill-opacity:0.2;fill-rule:nonzero;"/>
            </g>
            <g transform="matrix(3.61953,0,0,3.43913,143.598,292.623)">
                <path d="M32,5C19.4,5 18,16.294 18,29L24,29C23.852,16.294 26.73,11 32,11C37.27,11 40.147,16.294 40,29L46,29C46,16.294 44.6,5 32,5Z" style="fill:rgb(228,228,228);fill-rule:nonzero;"/>
            </g>
            <g transform="matrix(3.61953,0,0,3.43913,143.598,292.623)">
                <path d="M32,5C19.4,5 18,16.294 18,29L18.008,29C18.086,16.71 19.733,6 32,6C44.266,6 45.913,16.71 45.992,29L46,29C46,16.294 44.6,5 32,5Z" style="fill:white;fill-opacity:0.2;fill-rule:nonzero;"/>
            </g>
            <g transform="matrix(0,-3.43913,-3.61953,0,143.598,292.623)">
                <path d="M-19,-42.238C-19,-47.626 -23.604,-52 -29.274,-52L-48.726,-52C-54.396,-52 -59,-47.626 -59,-42.238L-59,-21.762C-59,-16.374 -54.396,-12 -48.726,-12L-29.274,-12C-23.604,-12 -19,-16.374 -19,-21.762L-19,-42.238Z" style="fill:rgb(160,160,160);"/>
            </g>
            <g transform="matrix(0,-3.43913,-3.61953,0,143.598,292.623)">
                <path d="M-25,-39.167C-25,-42.938 -28.223,-46 -32.192,-46L-45.808,-46C-49.777,-46 -53,-42.938 -53,-39.167L-53,-24.833C-53,-21.062 -49.777,-18 -45.808,-18L-32.192,-18C-28.223,-18 -25,-21.062 -25,-24.833L-25,-39.167Z" style="fill:rgb(79,79,79);"/>
            </g>
            <g transform="matrix(3.61953,0,0,3.43913,143.598,292.623)">
                <path d="M39.778,32.222L36.596,33.282L33.693,34.252C31.591,33.631 29.31,34.21 27.757,35.757C26.633,36.882 26,38.409 26,40C26,41.591 26.633,43.118 27.757,44.243C28.882,45.367 30.409,46 32,46C33.591,46 35.118,45.367 36.243,44.243C37.794,42.689 38.374,40.404 37.751,38.299L38.718,35.404L39.778,32.222Z" style="fill-opacity:0.2;fill-rule:nonzero;"/>
            </g>
            <g transform="matrix(3.61953,0,0,3.43913,143.598,292.623)">
                <path d="M39.778,31.222L36.596,32.282L33.693,33.252C31.591,32.631 29.31,33.21 27.757,34.757C26.633,35.882 26,37.409 26,39C26,40.591 26.633,42.118 27.757,43.243C28.882,44.367 30.409,45 32,45C33.591,45 35.118,44.367 36.243,43.243C37.794,41.689 38.374,39.404 37.751,37.299L38.718,34.404L39.778,31.222Z" style="fill:rgb(255,89,105);fill-rule:nonzero;"/>
            </g>
        </g>
    </g>
</svg>
