<?xml version="1.0" encoding="UTF-8" standalone="no"?>
<!DOCTYPE svg PUBLIC "-//W3C//DTD SVG 1.1//EN" "http://www.w3.org/Graphics/SVG/1.1/DTD/svg11.dtd">
<svg width="100%" height="100%" viewBox="0 0 512 512" version="1.1" xmlns="http://www.w3.org/2000/svg" xmlns:xlink="http://www.w3.org/1999/xlink" xml:space="preserve" xmlns:serif="http://www.serif.com/" style="fill-rule:evenodd;clip-rule:evenodd;stroke-linejoin:round;stroke-miterlimit:2;">
    <g transform="matrix(1.21282,0,0,1,-51.6232,0)">
        <path d="M97.103,353.103C97.103,440.86 168.244,512 256,512C343.756,512 414.897,440.86 414.897,353.103C414.897,264.827 410.815,193.73 440.429,131.937C440.429,131.937 353.103,141.241 326.621,211.861C326.621,211.861 261.515,157.877 298.397,34.291C298.397,34.291 185.38,35.309 194.776,150.068C202.834,248.474 185.38,264.827 185.38,264.827C185.38,185.379 71.035,161.022 71.035,161.022C119.642,230.026 97.103,273.655 97.103,353.103Z" style="fill:rgb(225,98,50);fill-rule:nonzero;"/>
    </g>
    <path d="M370.696,390.734C370.696,456.827 319.663,513.25 253.582,511.975C191.394,510.777 145.125,463.461 150.07,401.654C152.277,374.068 173.242,329.378 207.449,284.137L230.254,297.93C229.517,242.023 256,167.724 256,167.724C273.396,246.007 370.696,266.298 370.696,390.734Z" style="fill:rgb(255,190,100);fill-rule:nonzero;"/>
    <path d="M211.862,335.448C203.034,388.414 185.379,407.697 185.379,441.379C185.379,476.69 216.998,512 256,512C295.284,512 326.729,479.903 326.62,440.619C326.325,335.111 264.828,282.483 264.828,282.483C273.656,335.449 247.173,361.931 247.173,361.931C236.141,345.385 211.862,335.448 211.862,335.448Z" style="fill:white;fill-rule:nonzero;"/>
    <g transform="matrix(0.245926,0,0,0.346141,134.105,214.78)">
        <path d="M200,395.4C265.8,395.4 318.9,342.9 318.9,277.8C318.9,212.7 265.8,160.2 200,160.2C134.2,160.2 81.1,212.7 81.1,277.8C81.1,342.9 134.2,395.4 200,395.4ZM499.7,508.3C576.1,508.3 637.9,447.2 637.9,372.8C637.9,298.4 576.1,237.3 499.7,237.3C424,236.6 362.2,297.1 362.2,372.2C362.1,447.2 423.9,508.3 499.7,508.3ZM800,395.4C865.8,395.4 918.9,342.9 918.9,277.8C918.9,212.7 865.8,160.2 800,160.2C734.2,160.2 681.1,212.7 681.1,277.8C681.7,342.9 734.9,395.4 800,395.4ZM811.9,447.2L788,447.2C711.6,447.2 646.5,495 621.2,562.8C673,588 714.2,629.9 738.8,681.7L960,681.7C976.6,681.7 989.9,668.4 989.9,651.8L989.9,624.6C990,526.9 910.3,447.2 811.9,447.2ZM377.4,560.1C351.5,494.3 287,447.2 212,447.2L188.1,447.2C89.7,447.2 10,526.9 10,624.6L10,651.8C10,668.4 23.3,681.7 39.9,681.7L254.5,681.7C279.1,627.9 322.9,584.7 377.4,560.1ZM520.9,568.1L479.7,568.1C369.4,568.1 279.7,657.8 279.7,768.1L279.7,804C279.7,823.9 295.6,839.9 315.6,839.9L686.3,839.9C706.2,839.9 722.2,824 722.2,804L722.2,768.1C720.9,657.8 631.2,568.1 520.9,568.1Z" style="fill:rgb(21,21,21);fill-rule:nonzero;"/>
    </g>
</svg>
