<?xml version="1.0" encoding="UTF-8" standalone="no"?>
<!DOCTYPE svg PUBLIC "-//W3C//DTD SVG 1.1//EN" "http://www.w3.org/Graphics/SVG/1.1/DTD/svg11.dtd">
<svg width="100%" height="100%" viewBox="0 0 1000 350" version="1.1" xmlns="http://www.w3.org/2000/svg" xmlns:xlink="http://www.w3.org/1999/xlink" xml:space="preserve" xmlns:serif="http://www.serif.com/" style="fill-rule:evenodd;clip-rule:evenodd;stroke-linejoin:round;stroke-miterlimit:2;">
    <g transform="matrix(0.953749,0,0,0.642482,-1.14008,-0.229472)">
        <rect x="0.676" y="-0.642" width="1050.66" height="549.421" style="fill:rgb(4,3,14);"/>
    </g>
    <g transform="matrix(1,0,0,1,-73.911,60.2223)">
        <text x="365.57px" y="19.431px" style="font-family:'Arial-BoldMT', 'Arial', sans-serif;font-weight:700;font-size:75px;fill:rgb(225,98,0);">ORM</text>
        <text x="540.546px" y="19.431px" style="font-family:'Arial-BoldMT', 'Arial', sans-serif;font-weight:700;font-size:75px;fill:rgb(255,190,100);">OnFire</text>
    </g>
    <g transform="matrix(0.795442,0,0,0.795442,156.082,59.9003)">
        <g transform="matrix(0.918275,0,0,0.617075,199.628,27.7651)">
            <path d="M97.103,353.103C97.103,440.86 168.244,512 256,512C343.756,512 414.897,440.86 414.897,353.103C414.897,264.827 410.815,193.73 440.429,131.937C440.429,131.937 353.103,141.241 326.621,211.861C326.621,211.861 261.515,157.877 298.397,34.291C298.397,34.291 185.38,35.309 194.776,150.068C202.834,248.474 185.38,264.827 185.38,264.827C185.38,185.379 71.035,161.022 71.035,161.022C119.642,230.026 97.103,273.655 97.103,353.103Z" style="fill:rgb(225,98,50);fill-rule:nonzero;"/>
        </g>
        <g transform="matrix(0.757143,0,0,0.617075,238.714,27.7651)">
            <path d="M370.696,390.734C370.696,456.827 319.663,513.25 253.582,511.975C191.394,510.777 145.125,463.461 150.07,401.654C152.277,374.068 173.242,329.378 207.449,284.137L230.254,297.93C229.517,242.023 256,167.724 256,167.724C273.396,246.007 370.696,266.298 370.696,390.734Z" style="fill:rgb(255,190,100);fill-rule:nonzero;"/>
        </g>
        <g transform="matrix(0.757143,0,0,0.617075,238.714,27.7651)">
            <path d="M211.862,335.448C203.034,388.414 185.379,407.697 185.379,441.379C185.379,476.69 216.998,512 256,512C295.284,512 326.729,479.903 326.62,440.619C326.325,335.111 264.828,282.483 264.828,282.483C273.656,335.449 247.173,361.931 247.173,361.931C236.141,345.385 211.862,335.448 211.862,335.448Z" style="fill:white;fill-rule:nonzero;"/>
        </g>
        <g transform="matrix(0.133163,0,0,0.133163,376.63,204.091)">
            <g>
                <ellipse cx="420.5" cy="192.7" rx="410.5" ry="182.7" style="fill:rgb(21,21,21);"/>
                <path d="M515.6,863.8C486.8,856.5 465.3,833 459.9,804.3C446.9,804.9 433.8,805.2 420.5,805.2C193.8,805.2 10,723.5 10,622.5L10,762.2C10,863.2 193.8,944.9 420.5,944.9C453.1,944.9 484.7,943 515.1,939.8C502,916.4 501.3,887.5 515.6,863.8Z" style="fill:rgb(21,21,21);fill-rule:nonzero;"/>
                <path d="M420.5,755.1C433.3,755.1 445.9,754.8 458.5,754.3L458.5,733.3C458.5,698.2 482.5,668 516,659.7C507.2,644.8 504,627.8 506.1,611.4C478.5,614 449.9,615.4 420.6,615.4C193.8,615.4 10,533.7 10,432.7L10,572.4C10,673.3 193.8,755.1 420.5,755.1Z" style="fill:rgb(21,21,21);fill-rule:nonzero;"/>
                <path d="M420.5,565.3C461,565.3 500.2,562.6 537.2,557.7L567.9,527C582.6,512.3 602,504.8 621.6,504.8C634.8,504.8 648,508.2 659.9,515.2C668.6,482.1 698.5,458.6 733.3,458.6L790.2,458.6C791.2,458.6 792.2,458.8 793.2,458.9C817.2,435.7 830.9,409.9 830.9,382.7L830.9,243C830.9,343.9 647.1,425.7 420.4,425.7C193.7,425.6 10,343.8 10,242.8L10,382.5C10,483.5 193.8,565.3 420.5,565.3Z" style="fill:rgb(21,21,21);fill-rule:nonzero;"/>
            </g>
            <g>
                <path d="M990,790.2L990,733.3L922.2,722.2C918.2,706.2 911.9,691.1 903.6,677.2L943.1,620.9L902.8,580.6L847.2,620.6C833.3,612.2 818.2,605.8 802,601.8L790.2,534.4L733.3,534.4L722.3,601.6C706.1,605.5 690.9,611.9 677,620.2L621.6,580.6L581.3,620.9L620.3,676.6C611.8,690.6 605.4,705.8 601.4,722.1L534.5,733.2L534.5,790.1L601.4,801.9C605.4,818.2 611.8,833.4 620.3,847.4L580.8,902.6L621.1,942.9L676.9,903.8C690.9,912.2 706.1,918.5 722.2,922.5L733.4,989.7L790.3,989.7L802.3,922.3C818.4,918.3 833.5,911.8 847.4,903.4L903.6,942.8L943.8,902.5L903.7,846.8C912,832.9 918.3,817.8 922.3,801.7L990,790.2ZM762.2,841.6C718.4,841.6 682.8,806.1 682.8,762.2C682.8,718.4 718.4,682.8 762.2,682.8C806.1,682.8 841.6,718.4 841.6,762.2C841.6,806.1 806.1,841.6 762.2,841.6Z" style="fill:rgb(21,21,21);fill-rule:nonzero;"/>
            </g>
        </g>
    </g>
</svg>
